{
	"asset":{
		"generator":"Khronos glTF Blender I/O v4.0.44",
		"version":"2.0"
	},
	"scene":0,
	"scenes":[
		{
			"name":"Scene",
			"nodes":[
				1
			]
		}
	],
	"nodes":[
		{
			"mesh":0,
			"name":"Building_1_walls_1",
			"translation":[
				0,
				2.5878805899992585e-05,
				0.00012189814879093319
			]
		},
		{
			"children":[
				0
			],
			"name":"Building_1",
			"rotation":[
				0.70710688829422,
				0,
				0,
				0.7071066498756409
			],
			"scale":[
				0.009999999776482582,
				0.009999999776482582,
				0.009999999776482582
			],
			"translation":[
				-31.76554298400879,
				-10.927831649780273,
				-8.053192138671875
			]
		}
	],
	"materials":[
		{
			"doubleSided":true,
			"name":"Brick_walls_2_1.004",
			"pbrMetallicRoughness":{
				"baseColorTexture":{
					"index":0
				},
				"metallicFactor":0
			}
		},
		{
			"doubleSided":true,
			"name":"Walls_1.005",
			"pbrMetallicRoughness":{
				"baseColorTexture":{
					"index":1
				},
				"metallicFactor":0,
				"roughnessFactor":0.5527864098548889
			}
		},
		{
			"doubleSided":true,
			"name":"Doors.005",
			"pbrMetallicRoughness":{
				"baseColorTexture":{
					"index":2
				},
				"metallicFactor":0,
				"roughnessFactor":0.5527864098548889
			}
		},
		{
			"doubleSided":true,
			"name":"Parts.004",
			"pbrMetallicRoughness":{
				"baseColorTexture":{
					"index":3
				},
				"metallicFactor":0
			}
		},
		{
			"doubleSided":true,
			"name":"Tile_1.004",
			"pbrMetallicRoughness":{
				"baseColorTexture":{
					"index":4
				},
				"metallicFactor":0,
				"roughnessFactor":0.5527864098548889
			}
		},
		{
			"doubleSided":true,
			"name":"Plinth_1.004",
			"pbrMetallicRoughness":{
				"baseColorTexture":{
					"index":5
				},
				"metallicFactor":0,
				"roughnessFactor":0.5527864098548889
			}
		},
		{
			"doubleSided":true,
			"name":"Roof.005",
			"pbrMetallicRoughness":{
				"baseColorTexture":{
					"index":6
				},
				"metallicFactor":0
			}
		},
		{
			"doubleSided":true,
			"name":"Stairs.005",
			"pbrMetallicRoughness":{
				"baseColorTexture":{
					"index":7
				},
				"metallicFactor":0,
				"roughnessFactor":0.5527864098548889
			}
		},
		{
			"doubleSided":true,
			"name":"Walls_2_3.004",
			"pbrMetallicRoughness":{
				"baseColorTexture":{
					"index":8
				},
				"metallicFactor":0
			}
		},
		{
			"doubleSided":true,
			"name":"Windows.005",
			"pbrMetallicRoughness":{
				"baseColorTexture":{
					"index":9
				},
				"metallicFactor":0,
				"roughnessFactor":0.5527864098548889
			}
		},
		{
			"doubleSided":true,
			"name":"Airing.005",
			"pbrMetallicRoughness":{
				"baseColorTexture":{
					"index":10
				},
				"metallicFactor":0,
				"roughnessFactor":0.5527864098548889
			}
		}
	],
	"meshes":[
		{
			"name":"Scene.407",
			"primitives":[
				{
					"attributes":{
						"POSITION":0,
						"NORMAL":1,
						"TEXCOORD_0":2,
						"TEXCOORD_1":3
					},
					"indices":4,
					"material":0
				},
				{
					"attributes":{
						"POSITION":5,
						"NORMAL":6,
						"TEXCOORD_0":7,
						"TEXCOORD_1":8
					},
					"indices":9,
					"material":1
				},
				{
					"attributes":{
						"POSITION":10,
						"NORMAL":11,
						"TEXCOORD_0":12,
						"TEXCOORD_1":13
					},
					"indices":14,
					"material":2
				},
				{
					"attributes":{
						"POSITION":15,
						"NORMAL":16,
						"TEXCOORD_0":17,
						"TEXCOORD_1":18
					},
					"indices":19,
					"material":3
				},
				{
					"attributes":{
						"POSITION":20,
						"NORMAL":21,
						"TEXCOORD_0":22,
						"TEXCOORD_1":23
					},
					"indices":24,
					"material":4
				},
				{
					"attributes":{
						"POSITION":25,
						"NORMAL":26,
						"TEXCOORD_0":27,
						"TEXCOORD_1":28
					},
					"indices":29,
					"material":5
				},
				{
					"attributes":{
						"POSITION":30,
						"NORMAL":31,
						"TEXCOORD_0":32,
						"TEXCOORD_1":33
					},
					"indices":34,
					"material":6
				},
				{
					"attributes":{
						"POSITION":35,
						"NORMAL":36,
						"TEXCOORD_0":37,
						"TEXCOORD_1":38
					},
					"indices":39,
					"material":7
				},
				{
					"attributes":{
						"POSITION":40,
						"NORMAL":41,
						"TEXCOORD_0":42,
						"TEXCOORD_1":43
					},
					"indices":44,
					"material":8
				},
				{
					"attributes":{
						"POSITION":45,
						"NORMAL":46,
						"TEXCOORD_0":47,
						"TEXCOORD_1":48
					},
					"indices":49,
					"material":9
				},
				{
					"attributes":{
						"POSITION":50,
						"NORMAL":51,
						"TEXCOORD_0":52,
						"TEXCOORD_1":53
					},
					"indices":54,
					"material":10
				}
			]
		}
	],
	"textures":[
		{
			"sampler":0,
			"source":0
		},
		{
			"sampler":0,
			"source":1
		},
		{
			"sampler":0,
			"source":2
		},
		{
			"sampler":0,
			"source":3
		},
		{
			"sampler":0,
			"source":4
		},
		{
			"sampler":0,
			"source":5
		},
		{
			"sampler":0,
			"source":6
		},
		{
			"sampler":0,
			"source":7
		},
		{
			"sampler":0,
			"source":8
		},
		{
			"sampler":0,
			"source":9
		},
		{
			"sampler":0,
			"source":10
		}
	],
	"images":[
		{
			"mimeType":"image/jpeg",
			"name":"DiffuseColor_Texture_7",
			"uri":"DiffuseColor_Texture_7.jpg"
		},
		{
			"mimeType":"image/jpeg",
			"name":"DiffuseColor_Texture",
			"uri":"DiffuseColor_Texture.jpg"
		},
		{
			"mimeType":"image/jpeg",
			"name":"DiffuseColor_Texture_1",
			"uri":"DiffuseColor_Texture_1.jpg"
		},
		{
			"mimeType":"image/jpeg",
			"name":"DiffuseColor_Texture_2",
			"uri":"DiffuseColor_Texture_2.jpg"
		},
		{
			"mimeType":"image/jpeg",
			"name":"DiffuseColor_Texture_3",
			"uri":"DiffuseColor_Texture_3.jpg"
		},
		{
			"mimeType":"image/jpeg",
			"name":"DiffuseColor_Texture_4",
			"uri":"DiffuseColor_Texture_4.jpg"
		},
		{
			"mimeType":"image/jpeg",
			"name":"DiffuseColor_Texture_5",
			"uri":"DiffuseColor_Texture_5.jpg"
		},
		{
			"mimeType":"image/jpeg",
			"name":"DiffuseColor_Texture_6",
			"uri":"DiffuseColor_Texture_6.jpg"
		},
		{
			"mimeType":"image/jpeg",
			"name":"DiffuseColor_Texture_8",
			"uri":"DiffuseColor_Texture_8.jpg"
		},
		{
			"mimeType":"image/jpeg",
			"name":"DiffuseColor_Texture_9",
			"uri":"DiffuseColor_Texture_9.jpg"
		},
		{
			"mimeType":"image/jpeg",
			"name":"DiffuseColor_Texture_10",
			"uri":"DiffuseColor_Texture_10.jpg"
		}
	],
	"accessors":[
		{
			"bufferView":0,
			"componentType":5126,
			"count":192,
			"max":[
				325.00006103515625,
				200.09774780273438,
				-50.097686767578125
			],
			"min":[
				-325.0001220703125,
				-200.00009155273438,
				-300.00006103515625
			],
			"type":"VEC3"
		},
		{
			"bufferView":1,
			"componentType":5126,
			"count":192,
			"type":"VEC3"
		},
		{
			"bufferView":2,
			"componentType":5126,
			"count":192,
			"type":"VEC2"
		},
		{
			"bufferView":3,
			"componentType":5126,
			"count":192,
			"type":"VEC2"
		},
		{
			"bufferView":4,
			"componentType":5123,
			"count":366,
			"type":"SCALAR"
		},
		{
			"bufferView":5,
			"componentType":5126,
			"count":756,
			"max":[
				340.0002746582031,
				214.85838317871094,
				-294.86944580078125
			],
			"min":[
				-340.0002136230469,
				-215.00025939941406,
				-885.1776733398438
			],
			"type":"VEC3"
		},
		{
			"bufferView":6,
			"componentType":5126,
			"count":756,
			"type":"VEC3"
		},
		{
			"bufferView":7,
			"componentType":5126,
			"count":756,
			"type":"VEC2"
		},
		{
			"bufferView":8,
			"componentType":5126,
			"count":756,
			"type":"VEC2"
		},
		{
			"bufferView":9,
			"componentType":5123,
			"count":1128,
			"type":"SCALAR"
		},
		{
			"bufferView":10,
			"componentType":5126,
			"count":422,
			"max":[
				37.385650634765625,
				195.38668823242188,
				-49.9998779296875
			],
			"min":[
				-262.5,
				-23.23225212097168,
				-830.9998168945312
			],
			"type":"VEC3"
		},
		{
			"bufferView":11,
			"componentType":5126,
			"count":422,
			"type":"VEC3"
		},
		{
			"bufferView":12,
			"componentType":5126,
			"count":422,
			"type":"VEC2"
		},
		{
			"bufferView":13,
			"componentType":5126,
			"count":422,
			"type":"VEC2"
		},
		{
			"bufferView":14,
			"componentType":5123,
			"count":720,
			"type":"SCALAR"
		},
		{
			"bufferView":15,
			"componentType":5126,
			"count":566,
			"max":[
				304.3818054199219,
				189.4639434814453,
				-599.8737182617188
			],
			"min":[
				-304.3818664550781,
				80.61807250976562,
				-669.1663208007812
			],
			"type":"VEC3"
		},
		{
			"bufferView":16,
			"componentType":5126,
			"count":566,
			"type":"VEC3"
		},
		{
			"bufferView":17,
			"componentType":5126,
			"count":566,
			"type":"VEC2"
		},
		{
			"bufferView":18,
			"componentType":5126,
			"count":566,
			"type":"VEC2"
		},
		{
			"bufferView":19,
			"componentType":5123,
			"count":846,
			"type":"SCALAR"
		},
		{
			"bufferView":20,
			"componentType":5126,
			"count":28,
			"max":[
				325,
				199.98387145996094,
				-599.999755859375
			],
			"min":[
				-325,
				-36.26430892944336,
				-599.999755859375
			],
			"type":"VEC3"
		},
		{
			"bufferView":21,
			"componentType":5126,
			"count":28,
			"type":"VEC3"
		},
		{
			"bufferView":22,
			"componentType":5126,
			"count":28,
			"type":"VEC2"
		},
		{
			"bufferView":23,
			"componentType":5126,
			"count":28,
			"type":"VEC2"
		},
		{
			"bufferView":24,
			"componentType":5123,
			"count":42,
			"type":"SCALAR"
		},
		{
			"bufferView":25,
			"componentType":5126,
			"count":120,
			"max":[
				342.5002136230469,
				217.52700805664062,
				-0.1392364501953125
			],
			"min":[
				-342.5002136230469,
				-217.50015258789062,
				-50.00004196166992
			],
			"type":"VEC3"
		},
		{
			"bufferView":26,
			"componentType":5126,
			"count":120,
			"type":"VEC3"
		},
		{
			"bufferView":27,
			"componentType":5126,
			"count":120,
			"type":"VEC2"
		},
		{
			"bufferView":28,
			"componentType":5126,
			"count":120,
			"type":"VEC2"
		},
		{
			"bufferView":29,
			"componentType":5123,
			"count":204,
			"type":"SCALAR"
		},
		{
			"bufferView":30,
			"componentType":5126,
			"count":12,
			"max":[
				275,
				-0.0977630615234375,
				-849.999755859375
			],
			"min":[
				-275,
				-200.00006103515625,
				-849.999755859375
			],
			"type":"VEC3"
		},
		{
			"bufferView":31,
			"componentType":5126,
			"count":12,
			"type":"VEC3"
		},
		{
			"bufferView":32,
			"componentType":5126,
			"count":12,
			"type":"VEC2"
		},
		{
			"bufferView":33,
			"componentType":5126,
			"count":12,
			"type":"VEC2"
		},
		{
			"bufferView":34,
			"componentType":5123,
			"count":18,
			"type":"SCALAR"
		},
		{
			"bufferView":35,
			"componentType":5126,
			"count":68,
			"max":[
				70.4305419921875,
				297.3372802734375,
				0.05755615234375
			],
			"min":[
				-320.4305419921875,
				190.59994506835938,
				-73.26470184326172
			],
			"type":"VEC3"
		},
		{
			"bufferView":36,
			"componentType":5126,
			"count":68,
			"type":"VEC3"
		},
		{
			"bufferView":37,
			"componentType":5126,
			"count":68,
			"type":"VEC2"
		},
		{
			"bufferView":38,
			"componentType":5126,
			"count":68,
			"type":"VEC2"
		},
		{
			"bufferView":39,
			"componentType":5123,
			"count":108,
			"type":"SCALAR"
		},
		{
			"bufferView":40,
			"componentType":5126,
			"count":328,
			"max":[
				325.00006103515625,
				200.09768676757812,
				-329.8726806640625
			],
			"min":[
				-325.0001220703125,
				-200.00015258789062,
				-849.9998779296875
			],
			"type":"VEC3"
		},
		{
			"bufferView":41,
			"componentType":5126,
			"count":328,
			"type":"VEC3"
		},
		{
			"bufferView":42,
			"componentType":5126,
			"count":328,
			"type":"VEC2"
		},
		{
			"bufferView":43,
			"componentType":5126,
			"count":328,
			"type":"VEC2"
		},
		{
			"bufferView":44,
			"componentType":5123,
			"count":630,
			"type":"SCALAR"
		},
		{
			"bufferView":45,
			"componentType":5126,
			"count":914,
			"max":[
				318.1669006347656,
				193.0724334716797,
				-111.9998779296875
			],
			"min":[
				-318.0865783691406,
				-193.07215881347656,
				-782.9998168945312
			],
			"type":"VEC3"
		},
		{
			"bufferView":46,
			"componentType":5126,
			"count":914,
			"type":"VEC3"
		},
		{
			"bufferView":47,
			"componentType":5126,
			"count":914,
			"type":"VEC2"
		},
		{
			"bufferView":48,
			"componentType":5126,
			"count":914,
			"type":"VEC2"
		},
		{
			"bufferView":49,
			"componentType":5123,
			"count":1350,
			"type":"SCALAR"
		},
		{
			"bufferView":50,
			"componentType":5126,
			"count":280,
			"max":[
				228.1109619140625,
				-10.6251220703125,
				-849.9595947265625
			],
			"min":[
				171.875,
				-189.3751220703125,
				-959.7244873046875
			],
			"type":"VEC3"
		},
		{
			"bufferView":51,
			"componentType":5126,
			"count":280,
			"type":"VEC3"
		},
		{
			"bufferView":52,
			"componentType":5126,
			"count":280,
			"type":"VEC2"
		},
		{
			"bufferView":53,
			"componentType":5126,
			"count":280,
			"type":"VEC2"
		},
		{
			"bufferView":54,
			"componentType":5123,
			"count":456,
			"type":"SCALAR"
		}
	],
	"bufferViews":[
		{
			"buffer":0,
			"byteLength":2304,
			"byteOffset":0,
			"target":34962
		},
		{
			"buffer":0,
			"byteLength":2304,
			"byteOffset":2304,
			"target":34962
		},
		{
			"buffer":0,
			"byteLength":1536,
			"byteOffset":4608,
			"target":34962
		},
		{
			"buffer":0,
			"byteLength":1536,
			"byteOffset":6144,
			"target":34962
		},
		{
			"buffer":0,
			"byteLength":732,
			"byteOffset":7680,
			"target":34963
		},
		{
			"buffer":0,
			"byteLength":9072,
			"byteOffset":8412,
			"target":34962
		},
		{
			"buffer":0,
			"byteLength":9072,
			"byteOffset":17484,
			"target":34962
		},
		{
			"buffer":0,
			"byteLength":6048,
			"byteOffset":26556,
			"target":34962
		},
		{
			"buffer":0,
			"byteLength":6048,
			"byteOffset":32604,
			"target":34962
		},
		{
			"buffer":0,
			"byteLength":2256,
			"byteOffset":38652,
			"target":34963
		},
		{
			"buffer":0,
			"byteLength":5064,
			"byteOffset":40908,
			"target":34962
		},
		{
			"buffer":0,
			"byteLength":5064,
			"byteOffset":45972,
			"target":34962
		},
		{
			"buffer":0,
			"byteLength":3376,
			"byteOffset":51036,
			"target":34962
		},
		{
			"buffer":0,
			"byteLength":3376,
			"byteOffset":54412,
			"target":34962
		},
		{
			"buffer":0,
			"byteLength":1440,
			"byteOffset":57788,
			"target":34963
		},
		{
			"buffer":0,
			"byteLength":6792,
			"byteOffset":59228,
			"target":34962
		},
		{
			"buffer":0,
			"byteLength":6792,
			"byteOffset":66020,
			"target":34962
		},
		{
			"buffer":0,
			"byteLength":4528,
			"byteOffset":72812,
			"target":34962
		},
		{
			"buffer":0,
			"byteLength":4528,
			"byteOffset":77340,
			"target":34962
		},
		{
			"buffer":0,
			"byteLength":1692,
			"byteOffset":81868,
			"target":34963
		},
		{
			"buffer":0,
			"byteLength":336,
			"byteOffset":83560,
			"target":34962
		},
		{
			"buffer":0,
			"byteLength":336,
			"byteOffset":83896,
			"target":34962
		},
		{
			"buffer":0,
			"byteLength":224,
			"byteOffset":84232,
			"target":34962
		},
		{
			"buffer":0,
			"byteLength":224,
			"byteOffset":84456,
			"target":34962
		},
		{
			"buffer":0,
			"byteLength":84,
			"byteOffset":84680,
			"target":34963
		},
		{
			"buffer":0,
			"byteLength":1440,
			"byteOffset":84764,
			"target":34962
		},
		{
			"buffer":0,
			"byteLength":1440,
			"byteOffset":86204,
			"target":34962
		},
		{
			"buffer":0,
			"byteLength":960,
			"byteOffset":87644,
			"target":34962
		},
		{
			"buffer":0,
			"byteLength":960,
			"byteOffset":88604,
			"target":34962
		},
		{
			"buffer":0,
			"byteLength":408,
			"byteOffset":89564,
			"target":34963
		},
		{
			"buffer":0,
			"byteLength":144,
			"byteOffset":89972,
			"target":34962
		},
		{
			"buffer":0,
			"byteLength":144,
			"byteOffset":90116,
			"target":34962
		},
		{
			"buffer":0,
			"byteLength":96,
			"byteOffset":90260,
			"target":34962
		},
		{
			"buffer":0,
			"byteLength":96,
			"byteOffset":90356,
			"target":34962
		},
		{
			"buffer":0,
			"byteLength":36,
			"byteOffset":90452,
			"target":34963
		},
		{
			"buffer":0,
			"byteLength":816,
			"byteOffset":90488,
			"target":34962
		},
		{
			"buffer":0,
			"byteLength":816,
			"byteOffset":91304,
			"target":34962
		},
		{
			"buffer":0,
			"byteLength":544,
			"byteOffset":92120,
			"target":34962
		},
		{
			"buffer":0,
			"byteLength":544,
			"byteOffset":92664,
			"target":34962
		},
		{
			"buffer":0,
			"byteLength":216,
			"byteOffset":93208,
			"target":34963
		},
		{
			"buffer":0,
			"byteLength":3936,
			"byteOffset":93424,
			"target":34962
		},
		{
			"buffer":0,
			"byteLength":3936,
			"byteOffset":97360,
			"target":34962
		},
		{
			"buffer":0,
			"byteLength":2624,
			"byteOffset":101296,
			"target":34962
		},
		{
			"buffer":0,
			"byteLength":2624,
			"byteOffset":103920,
			"target":34962
		},
		{
			"buffer":0,
			"byteLength":1260,
			"byteOffset":106544,
			"target":34963
		},
		{
			"buffer":0,
			"byteLength":10968,
			"byteOffset":107804,
			"target":34962
		},
		{
			"buffer":0,
			"byteLength":10968,
			"byteOffset":118772,
			"target":34962
		},
		{
			"buffer":0,
			"byteLength":7312,
			"byteOffset":129740,
			"target":34962
		},
		{
			"buffer":0,
			"byteLength":7312,
			"byteOffset":137052,
			"target":34962
		},
		{
			"buffer":0,
			"byteLength":2700,
			"byteOffset":144364,
			"target":34963
		},
		{
			"buffer":0,
			"byteLength":3360,
			"byteOffset":147064,
			"target":34962
		},
		{
			"buffer":0,
			"byteLength":3360,
			"byteOffset":150424,
			"target":34962
		},
		{
			"buffer":0,
			"byteLength":2240,
			"byteOffset":153784,
			"target":34962
		},
		{
			"buffer":0,
			"byteLength":2240,
			"byteOffset":156024,
			"target":34962
		},
		{
			"buffer":0,
			"byteLength":912,
			"byteOffset":158264,
			"target":34963
		}
	],
	"samplers":[
		{
			"magFilter":9729,
			"minFilter":9987
		}
	],
	"buffers":[
		{
			"byteLength":159176,
			"uri":"Building_1.bin"
		}
	]
}
